<svg version="1.2" xmlns="http://www.w3.org/2000/svg" viewBox="0 0 128 128" width="128" height="128"><defs><linearGradient id="P" gradientUnits="userSpaceOnUse"/><linearGradient id="g1" x1="20" y1="64" x2="107.9" y2="64" href="#P"><stop stop-color="#7319fa"/><stop offset="1" stop-color="#a200ff"/></linearGradient></defs><style>.a{fill:url(#g1)}</style><path class="a" d="m104.7 20q1 0 1.8 0.5 1.6 1.2 1.3 3.2l-12.5 75.5q-0.3 1.4-1.6 2.2-0.7 0.4-1.5 0.4-0.6 0-1.2-0.3l-22.2-9.1-11.9 14.5q-0.9 1.2-2.4 1.2-0.6 0-1.1-0.2-0.9-0.4-1.5-1.2-0.5-0.8-0.5-1.8v-17.1l42.3-52.1-52.4 45.5-19.3-8q-1.8-0.7-2-2.7-0.1-1.9 1.6-2.9l81.6-47.2q0.7-0.4 1.5-0.4z"/></svg>