<svg version="1.2" xmlns="http://www.w3.org/2000/svg" viewBox="0 0 128 128" width="128" height="128"><style>.a{fill:#9678ff}</style><path fill-rule="evenodd" class="a" d="m64.1 117.3q-11 0-20.8-4.2-9.7-4.2-17-11.4-7.2-7.3-11.4-17-4.2-9.7-4.2-20.7 0-11.1 4.2-20.7 4.2-9.7 11.4-17 7.3-7.2 17-11.4 9.7-4.2 20.7-4.2 11.1 0 20.7 4.2 9.7 4.2 17 11.4 7.2 7.3 11.4 17 4.2 9.6 4.2 20.6 0 11-4.2 20.8-4.2 9.7-11.4 17-7.3 7.2-17 11.4-9.6 4.2-20.6 4.2zm-34.5-23.3q8.4-5.9 16.7-9 8.2-3.1 17.7-3.1 9.5 0 17.8 3.1 8.3 3.1 16.7 9 5.9-7.2 8.4-14.5 2.4-7.4 2.4-15.5 0-19.3-13-32.3-13-13-32.3-13-19.3 0-32.3 13-13 13-13 32.3 0 8.1 2.5 15.5 2.5 7.3 8.4 14.5zm34.4-26q-7.7 0-13-5.3-5.3-5.3-5.3-13 0-7.7 5.3-13 5.3-5.2 13-5.2 7.7 0 13 5.3 5.3 5.2 5.3 13 0 7.7-5.3 12.9-5.3 5.3-13 5.3zm0 41.3q7.3 0 14.3-2.1 7-2.1 13.8-7.5-6.8-4.8-13.8-7.3-7.1-2.5-14.3-2.5-7.2 0-14.3 2.5-7 2.5-13.8 7.3 6.8 5.4 13.8 7.5 7 2.1 14.3 2.1zm0-49.3q4.5 0 7.4-2.9 2.9-2.8 2.9-7.4 0-4.5-2.9-7.4-2.9-2.8-7.4-2.8-4.5 0-7.4 2.8-2.9 2.9-2.9 7.4 0 4.6 2.9 7.4 2.9 2.9 7.4 2.9z"/></svg>